<svg xmlns="http://www.w3.org/2000/svg" width="80" height="60" viewBox="0 0 80 60">
  <title>Spicebag mascot</title>
  <g shape-rendering="crispEdges">
    <rect x="8" y="0" width="8" height="4" fill="#945321"/>
    <rect x="16" y="0" width="8" height="4" fill="#BF8C54"/>
    <rect x="32" y="0" width="8" height="4" fill="#BF8C54"/>
    <rect x="48" y="0" width="8" height="4" fill="#BF8C54"/>
    <rect x="64" y="0" width="8" height="4" fill="#BF8C54"/>
    <rect x="8" y="4" width="8" height="16" fill="#945321"/>
    <rect x="16" y="4" width="8" height="16" fill="#BF8C54"/>
    <rect x="24" y="4" width="8" height="16" fill="#BF8C54"/>
    <rect x="32" y="4" width="8" height="16" fill="#BF8C54"/>
    <rect x="40" y="4" width="8" height="16" fill="#BF8C54"/>
    <rect x="48" y="4" width="8" height="16" fill="#BF8C54"/>
    <rect x="56" y="4" width="8" height="16" fill="#BF8C54"/>
    <rect x="64" y="4" width="8" height="16" fill="#BF8C54"/>
    <rect x="0" y="20" width="8" height="16" fill="#CEB430"/>
    <rect x="8" y="20" width="8" height="16" fill="#CFA435"/>
    <rect x="16" y="20" width="8" height="16" fill="#D09539"/>
    <rect x="24" y="20" width="8" height="16" fill="#D1873E"/>
    <rect x="32" y="20" width="8" height="16" fill="#D27A42"/>
    <rect x="40" y="20" width="8" height="16" fill="#2C91B8"/>
    <rect x="48" y="20" width="8" height="16" fill="#2A9DB4"/>
    <rect x="56" y="20" width="8" height="16" fill="#29A8AF"/>
    <rect x="64" y="20" width="8" height="16" fill="#28AAA3"/>
    <rect x="72" y="20" width="8" height="16" fill="#27A691"/>
    <rect x="0" y="36" width="8" height="16" fill="#CEB430"/>
    <rect x="8" y="36" width="8" height="16" fill="#CFA435"/>
    <rect x="16" y="36" width="8" height="16" fill="#D09539"/>
    <rect x="24" y="36" width="8" height="16" fill="#D1873E"/>
    <rect x="32" y="36" width="8" height="16" fill="#D27A42"/>
    <rect x="40" y="36" width="8" height="16" fill="#2C91B8"/>
    <rect x="48" y="36" width="8" height="16" fill="#2A9DB4"/>
    <rect x="56" y="36" width="8" height="16" fill="#29A8AF"/>
    <rect x="64" y="36" width="8" height="16" fill="#28AAA3"/>
    <rect x="72" y="36" width="8" height="16" fill="#27A691"/>
    <rect x="8" y="52" width="8" height="8" fill="#945321"/>
    <rect x="16" y="52" width="8" height="8" fill="#BF8C54"/>
    <rect x="24" y="52" width="8" height="8" fill="#BF8C54"/>
    <rect x="32" y="52" width="8" height="8" fill="#BF8C54"/>
    <rect x="40" y="52" width="8" height="8" fill="#BF8C54"/>
    <rect x="48" y="52" width="8" height="8" fill="#BF8C54"/>
    <rect x="56" y="52" width="8" height="8" fill="#BF8C54"/>
    <rect x="64" y="52" width="8" height="8" fill="#BF8C54"/>
  </g>
</svg>